<svg width="98" height="53" viewBox="0 0 98 53" fill="none" xmlns="http://www.w3.org/2000/svg">
<path d="M18.4565 27.9277C18.4415 29.8954 18.0667 31.6378 17.3319 33.1549C16.6121 34.657 15.6674 35.9187 14.4978 36.9401C13.3432 37.9615 12.0536 38.7351 10.6291 39.2608C9.20452 39.7865 7.78747 40.0494 6.37792 40.0494H5.92807C5.92807 40.6802 5.92807 41.4313 5.92807 42.3025C5.94306 43.1587 5.96556 44.0974 5.99555 45.1188C6.02554 46.1252 6.06303 47.1842 6.10801 48.2957C6.16799 49.3922 6.24297 50.4887 6.33294 51.5852C5.44822 51.4951 4.63848 51.435 3.90372 51.405C3.16896 51.3749 2.52416 51.3599 1.96934 51.3599C1.66944 51.3599 1.40702 51.3599 1.1821 51.3599C0.957169 51.3749 0.769729 51.3825 0.619777 51.3825C0.439835 51.3975 0.289883 51.405 0.169922 51.405C0.244898 50.2334 0.312376 49.0618 0.372357 47.8902C0.432337 46.7035 0.484821 45.5469 0.529806 44.4204C0.574792 43.2788 0.604782 42.1823 0.619777 41.1309C0.649768 40.0794 0.679758 39.0881 0.709748 38.1568C0.754734 35.9938 0.784724 33.921 0.799719 31.9382C0.799719 30.0306 0.784724 28.2056 0.754734 26.4632C0.739739 25.7272 0.724743 24.9687 0.709748 24.1876C0.694753 23.4065 0.67226 22.648 0.64227 21.912C0.627275 21.1759 0.604782 20.4925 0.574792 19.8616C0.559797 19.2157 0.529806 18.66 0.484821 18.1943C1.63945 17.9841 2.76409 17.8564 3.85874 17.8113C4.96838 17.7512 5.88308 17.7212 6.60285 17.7212C7.15767 17.7212 7.83995 17.7437 8.64969 17.7888C9.45943 17.8338 10.2992 17.9615 11.1689 18.1718C12.0536 18.3671 12.9308 18.6825 13.8005 19.1181C14.6703 19.5387 15.45 20.1245 16.1398 20.8755C16.8296 21.6266 17.3844 22.5804 17.8042 23.737C18.2391 24.8785 18.4565 26.2754 18.4565 27.9277ZM12.6534 28.108C12.6534 26.9664 12.5259 25.9901 12.271 25.1789C12.0161 24.3528 11.6262 23.6769 11.1014 23.1512C10.5916 22.6254 9.93178 22.2274 9.12204 21.957C8.3273 21.6866 7.3826 21.5214 6.28795 21.4613C6.22797 22.7831 6.17549 24.1726 6.1305 25.6296C6.10051 27.0866 6.07052 28.506 6.04053 29.8879C6.01054 31.2548 5.98805 32.5315 5.97305 33.7182C5.95806 34.8898 5.94306 35.8511 5.92807 36.6021C7.05271 36.5421 8.03489 36.2942 8.87462 35.8586C9.71435 35.423 10.4116 34.8372 10.9664 34.1012C11.5363 33.3652 11.9561 32.494 12.226 31.4876C12.511 30.4662 12.6534 29.3397 12.6534 28.108Z" fill="white"/>
<path d="M97.1331 18.8496C97.268 20.637 97.388 22.5146 97.4929 24.4823C97.5379 25.3235 97.5829 26.2247 97.6279 27.186C97.6729 28.1474 97.7104 29.1537 97.7404 30.2052C97.7703 31.2416 97.7928 32.3081 97.8078 33.4046C97.8378 34.4861 97.8528 35.5676 97.8528 36.649C97.8528 38.767 97.7179 40.7797 97.448 42.6873C97.178 44.595 96.7357 46.2773 96.1209 47.7343C95.5061 49.1913 94.6963 50.3479 93.6917 51.204C92.687 52.0602 91.4499 52.4883 89.9804 52.4883C89.9504 52.4883 89.8154 52.4808 89.5755 52.4658C89.3506 52.4508 89.0582 52.3982 88.6983 52.3081C88.3384 52.2179 87.9335 52.0752 87.4837 51.88C87.0488 51.6847 86.6064 51.4068 86.1566 51.0463C85.7067 50.6858 85.2794 50.2277 84.8745 49.6719C84.4696 49.1012 84.1322 48.4102 83.8623 47.5991C83.5474 48.3651 83.1725 49.0035 82.7377 49.5142C82.3028 50.0249 81.853 50.453 81.3881 50.7985C80.9233 51.1289 80.4509 51.3843 79.9711 51.5645C79.5062 51.7448 79.0864 51.8725 78.7115 51.9476C78.3366 52.0227 78.0217 52.0677 77.7668 52.0828C77.5119 52.0978 77.3619 52.1053 77.3169 52.1053C76.4172 52.1053 75.645 51.895 75.0002 51.4744C74.3704 51.0689 73.8306 50.5056 73.3807 49.7846C72.9458 49.0486 72.6009 48.1924 72.346 47.2161C72.0911 46.2247 71.8887 45.1582 71.7387 44.0167C71.6038 42.8601 71.5138 41.6509 71.4688 40.3892C71.4388 39.1274 71.4238 37.8657 71.4238 36.604C71.4238 35.4624 71.4313 34.3284 71.4463 33.2018C71.4613 32.0602 71.4763 30.9562 71.4913 29.8898C71.5213 28.8233 71.5513 27.8019 71.5813 26.8255C71.6263 25.8342 71.6638 24.9179 71.6937 24.0768C71.7687 22.094 71.8587 20.224 71.9637 18.4666L78.554 18.6468C78.2691 20.3892 78.0142 22.2217 77.7893 24.1444C77.6993 24.9705 77.6093 25.8567 77.5194 26.803C77.4294 27.7493 77.3469 28.7407 77.2719 29.7771C77.212 30.7985 77.1595 31.8575 77.1145 32.954C77.0695 34.0354 77.047 35.1169 77.047 36.1984C77.047 37.0246 77.047 37.8582 77.047 38.6994C77.062 39.5405 77.0845 40.3591 77.1145 41.1552C77.1595 41.9363 77.2195 42.6723 77.2944 43.3633C77.3694 44.0392 77.4744 44.64 77.6093 45.1657C77.7593 45.6764 77.9392 46.082 78.1492 46.3824C78.3741 46.6678 78.6515 46.8105 78.9814 46.8105C79.2963 46.8105 79.5887 46.6152 79.8586 46.2247C80.1435 45.8342 80.3909 45.3235 80.6009 44.6926C80.8258 44.0467 81.0207 43.3257 81.1857 42.5296C81.3656 41.7185 81.5081 40.9074 81.613 40.0963C81.733 39.2701 81.823 38.474 81.883 37.708C81.9429 36.9419 81.9729 36.281 81.9729 35.7253C81.9729 35.545 81.9804 35.3122 81.9954 35.0268C81.9954 34.7715 81.9954 34.4485 81.9954 34.058C82.0104 33.6524 82.0179 33.1643 82.0179 32.5935C82.0179 31.4519 82.0029 29.9123 81.9729 27.9746C81.9429 26.0219 81.898 23.5811 81.838 20.6521L87.5511 20.8774C87.4162 23.2957 87.3037 25.3535 87.2137 27.0508C87.1238 28.7482 87.0488 30.1676 86.9888 31.3092C86.9288 32.4358 86.8839 33.3445 86.8539 34.0354C86.8389 34.7114 86.8239 35.2521 86.8089 35.6577C86.8089 36.0482 86.8089 36.3486 86.8089 36.5589C86.8089 36.7542 86.8089 36.9419 86.8089 37.1222C86.8089 37.7681 86.8314 38.4665 86.8764 39.2176C86.9363 39.9536 87.0188 40.6896 87.1238 41.4256C87.2437 42.1616 87.3862 42.8751 87.5511 43.566C87.7311 44.242 87.926 44.8428 88.136 45.3685C88.3609 45.8792 88.6083 46.2923 88.8782 46.6077C89.1631 46.9232 89.4705 47.0809 89.8004 47.0809C90.3102 47.0809 90.7151 46.7955 91.015 46.2247C91.3299 45.6539 91.5623 44.8804 91.7123 43.904C91.8772 42.9126 91.9822 41.7711 92.0272 40.4793C92.0722 39.1725 92.0947 37.7906 92.0947 36.3336C92.0947 34.0655 92.0422 31.9701 91.9372 30.0475C91.8473 28.1248 91.7273 26.42 91.5773 24.9329C91.4274 23.4309 91.2699 22.1541 91.105 21.1027C90.955 20.0362 90.8276 19.2326 90.7226 18.6919L97.1331 18.8496Z" fill="white"/>
<path d="M53.2022 8.1806C53.6853 5.06882 52.3556 2.31435 50.2221 2.02488C50.1009 2.00807 49.9787 1.99976 49.8564 2.00001C47.8583 2.00001 45.9552 4.19363 45.4991 7.12676C45.016 10.2385 46.3457 12.993 48.4792 13.2825C48.6011 13.2983 48.723 13.3074 48.8449 13.3074C50.8429 13.3074 52.7506 11.1047 53.2022 8.1806Z" fill="#1B85F3"/>
<path d="M37.8072 13.2825C37.6857 13.2983 37.5641 13.3073 37.4403 13.3073C35.4427 13.3065 33.5379 11.1041 33.0775 8.1806C32.5966 5.06882 33.9263 2.31435 36.0575 2.02488C36.1795 2.00905 36.3014 2 36.4255 2C38.4235 2 40.329 4.19363 40.7873 7.12675C41.2682 10.2385 39.9384 12.993 37.8072 13.2825Z" fill="#1B85F3"/>
<path d="M60.7111 11.0459C61.026 11.0454 61.3377 11.1085 61.6277 11.2313C63.4632 12.0274 64.0141 15.1143 62.8491 18.1333C61.8648 20.6752 59.9774 22.3532 58.309 22.3532C57.9952 22.3532 57.6837 22.2922 57.3924 22.1678C55.5457 21.3717 55.0061 18.2848 56.1778 15.2658C57.1554 12.742 59.0179 11.073 60.6773 11.0459H60.7111Z" fill="#1B85F3"/>
<path d="M30.1064 15.2658C31.2759 18.2803 30.7386 21.3717 28.8963 22.1678C28.6028 22.2922 28.2935 22.3532 27.9775 22.3532C26.3113 22.3532 24.4262 20.6752 23.4419 18.1333C22.2724 15.1188 22.8097 12.0274 24.652 11.2313C24.9455 11.1069 25.2548 11.0459 25.5708 11.0459C27.237 11.0459 29.1221 12.7239 30.1064 15.2658Z" fill="#1B85F3"/>
<path d="M43.2129 19.7894C47.6 19.7894 48.7882 21.5426 52.6212 28.4861C54.2313 31.3919 56.7593 33.1938 59.1127 34.8712C61.5574 36.6137 63.8137 38.2219 64.657 40.7937C64.995 41.7156 65.1657 43.1488 65.1657 44.1402C65.1657 48.2346 62.4234 51.0976 58.8935 51.0976C53.7945 51.0976 51.1115 47.7779 48.7913 44.907C47.0238 42.7201 45.4669 40.7937 43.2129 40.7937C40.9317 40.7937 39.2932 42.7668 37.4503 44.9861C35.0816 47.8384 32.3751 51.0976 27.5322 51.0976C24.0023 51.0976 21.26 48.2311 21.26 44.1402C21.253 43.1488 21.4203 41.7156 21.7583 40.7937C22.5951 38.2504 24.705 36.8667 27.0109 35.3545C29.2656 33.8758 31.7078 32.2742 33.3306 29.3453C37.1636 22.4158 38.8258 19.7894 43.2129 19.7894Z" fill="#1B85F3"/>
<path d="M53.2022 8.1806C53.6853 5.06882 52.3556 2.31435 50.2221 2.02488C50.1009 2.00807 49.9787 1.99976 49.8564 2.00001C47.8583 2.00001 45.9552 4.19363 45.4991 7.12676C45.016 10.2385 46.3457 12.993 48.4792 13.2825C48.6011 13.2983 48.723 13.3074 48.8449 13.3074C50.8429 13.3074 52.7506 11.1047 53.2022 8.1806Z" stroke="#1B85F3" stroke-width="3" stroke-linecap="round" stroke-linejoin="round"/>
<path d="M37.8072 13.2825C37.6857 13.2983 37.5641 13.3073 37.4403 13.3073C35.4427 13.3065 33.5379 11.1041 33.0775 8.1806C32.5966 5.06882 33.9263 2.31435 36.0575 2.02488C36.1795 2.00905 36.3014 2 36.4255 2C38.4235 2 40.329 4.19363 40.7873 7.12675C41.2682 10.2385 39.9384 12.993 37.8072 13.2825Z" stroke="#1B85F3" stroke-width="3" stroke-linecap="round" stroke-linejoin="round"/>
<path d="M60.7111 11.0459C61.026 11.0454 61.3377 11.1085 61.6277 11.2313C63.4632 12.0274 64.0141 15.1143 62.8491 18.1333C61.8648 20.6752 59.9774 22.3532 58.309 22.3532C57.9952 22.3532 57.6837 22.2922 57.3924 22.1678C55.5457 21.3717 55.0061 18.2848 56.1778 15.2658C57.1554 12.742 59.0179 11.073 60.6773 11.0459H60.7111Z" stroke="#1B85F3" stroke-width="3" stroke-linecap="round" stroke-linejoin="round"/>
<path d="M30.1064 15.2658C31.2759 18.2803 30.7386 21.3717 28.8963 22.1678C28.6028 22.2922 28.2935 22.3532 27.9775 22.3532C26.3113 22.3532 24.4262 20.6752 23.4419 18.1333C22.2724 15.1188 22.8097 12.0274 24.652 11.2313C24.9455 11.1069 25.2548 11.0459 25.5708 11.0459C27.237 11.0459 29.1221 12.7239 30.1064 15.2658Z" stroke="#1B85F3" stroke-width="3" stroke-linecap="round" stroke-linejoin="round"/>
<path d="M43.2129 19.7894C47.6 19.7894 48.7882 21.5426 52.6212 28.4861C54.2313 31.3919 56.7593 33.1938 59.1127 34.8712C61.5574 36.6137 63.8137 38.2219 64.657 40.7937C64.995 41.7156 65.1657 43.1488 65.1657 44.1402C65.1657 48.2346 62.4234 51.0976 58.8935 51.0976C53.7945 51.0976 51.1115 47.7779 48.7913 44.907C47.0238 42.7201 45.4669 40.7937 43.2129 40.7937C40.9317 40.7937 39.2932 42.7668 37.4503 44.9861C35.0816 47.8384 32.3751 51.0976 27.5322 51.0976C24.0023 51.0976 21.26 48.2311 21.26 44.1402C21.253 43.1488 21.4203 41.7156 21.7583 40.7937C22.5951 38.2504 24.705 36.8667 27.0109 35.3545C29.2656 33.8758 31.7078 32.2742 33.3306 29.3453C37.1636 22.4158 38.8258 19.7894 43.2129 19.7894Z" stroke="#1B85F3" stroke-width="3" stroke-linecap="round" stroke-linejoin="round"/>
</svg>
